<svg xmlns="http://www.w3.org/2000/svg" xmlns:xlink="http://www.w3.org/1999/xlink" width="41.222" height="54.964" viewBox="0 0 41.222 54.964">
  <defs>
    <clipPath id="clip-path">
      <rect id="Rectángulo_403150" data-name="Rectángulo 403150" width="41.222" height="54.964" transform="translate(0 0)" fill="#fff"/>
    </clipPath>
    <clipPath id="clip-path-2">
      <rect id="Rectángulo_403151" data-name="Rectángulo 403151" width="41.218" height="54.964" transform="translate(0.001 0)" fill="none"/>
    </clipPath>
    <clipPath id="clip-path-3">
      <rect id="Rectángulo_403152" data-name="Rectángulo 403152" width="41.222" height="54.964" transform="translate(0 0)" fill="none"/>
    </clipPath>
  </defs>
  <g id="Grupo_1099909" data-name="Grupo 1099909" transform="translate(0 0)">
    <g id="Grupo_1099911" data-name="Grupo 1099911">
      <g id="Grupo_1099910" data-name="Grupo 1099910" clip-path="url(#clip-path)">
        <path id="Trazado_873576" data-name="Trazado 873576" d="M5.036,1.77h13a21,21,0,0,1,21,21v27a3,3,0,0,1-3,3h-31a3,3,0,0,1-3-3v-45a3,3,0,0,1,3-3" fill="#fff"/>
      </g>
    </g>
    <g id="Grupo_1099913" data-name="Grupo 1099913">
      <g id="Grupo_1099912" data-name="Grupo 1099912" clip-path="url(#clip-path-2)">
        <path id="Trazado_873577" data-name="Trazado 873577" d="M.011,27.442c0-6.754.026-13.507-.01-20.26A7.026,7.026,0,0,1,6.286.1,16.191,16.191,0,0,1,7.962,0q7.672,0,15.347.009a5.426,5.426,0,0,1,4.02,1.634c2.381,2.407,4.8,4.779,7.2,7.168,1.657,1.648,3.292,3.32,4.972,4.944a5.45,5.45,0,0,1,1.711,4.027c.019,1.658.006,3.317.006,4.975V47.671a7.076,7.076,0,0,1-1.467,4.572,6.642,6.642,0,0,1-5.413,2.721q-13.808-.015-27.614,0a6.375,6.375,0,0,1-4.385-1.81A7.13,7.13,0,0,1,.012,47.6q.008-10.076,0-20.153Zm3.426.082h0c0,6.86.03,13.721-.022,20.581A3.552,3.552,0,0,0,6.9,51.578c8.871-.053,17.743-.023,26.614-.026.465,0,.931,0,1.394-.038a2.976,2.976,0,0,0,2.222-1.266,3.4,3.4,0,0,0,.6-2.125q-.01-13.4-.007-26.809c0-.714.164-.68-.689-.68q-5.55,0-11.089-.007a5.144,5.144,0,0,1-1.166-.141,4.869,4.869,0,0,1-3.9-3.7,9.589,9.589,0,0,1-.232-2.266c-.026-3.46-.015-6.92-.02-10.38,0-.577-.026-.606-.6-.606q-6.761,0-13.521.018a2.863,2.863,0,0,0-1.233.291A3.265,3.265,0,0,0,3.432,7.015q.014,10.256,0,20.509M24.208,3.557a4.332,4.332,0,0,0-.1.553c-.013.4-.01.811-.01,1.216V15.343a2.379,2.379,0,0,0,.146.9A1.687,1.687,0,0,0,26,17.214q5.005.006,10.011,0c.44,0,.881-.022,1.321-.042a1.628,1.628,0,0,0,.3-.068.959.959,0,0,0-.126-.309q-.635-.68-1.29-1.338Q30.5,9.743,24.779,4.034c-.147-.147-.319-.269-.571-.478" fill="#ac064c"/>
      </g>
    </g>
    <g id="Grupo_1099915" data-name="Grupo 1099915">
      <g id="Grupo_1099914" data-name="Grupo 1099914" clip-path="url(#clip-path-3)">
        <path id="Trazado_873579" data-name="Trazado 873579" d="M32.54,45.392a3.044,3.044,0,0,1-1.76.817L9.749,46.137a2.709,2.709,0,0,1-2.066-2.31c-.4-4.48.311-12.489,0-17.033a2.7,2.7,0,0,1,2.378-2.288H30.878a2.678,2.678,0,0,1,2.381,2.382l0,17.032a3.133,3.133,0,0,1-.715,1.472" transform="translate(0.203 0.791)" fill="#ac064c"/>
        <path id="Trazado_873578" data-name="Trazado 873578" d="M18.432,30.788a.98.98,0,0,1,.643.053c1.929,1.334,4.043,2.414,5.975,3.74.651.447,1.259.8.553,1.638-2,1.133-3.874,2.52-5.869,3.662-.818.469-1.785,1.012-1.92-.447-.231-2.467.179-5.288,0-7.793a.893.893,0,0,1,.616-.852" transform="translate(-0.568 0.187)" fill="#fff"/>
      </g>
    </g>
  </g>
</svg>
